<?xml version="1.0" encoding="UTF-8" standalone="no"?>
<svg
   xmlns:dc="http://purl.org/dc/elements/1.1/"
   xmlns:cc="http://creativecommons.org/ns#"
   xmlns:rdf="http://www.w3.org/1999/02/22-rdf-syntax-ns#"
   xmlns:svg="http://www.w3.org/2000/svg"
   xmlns="http://www.w3.org/2000/svg"
   xmlns:sodipodi="http://sodipodi.sourceforge.net/DTD/sodipodi-0.dtd"
   xmlns:inkscape="http://www.inkscape.org/namespaces/inkscape"
   xml:space="preserve"
   viewBox="19 19 88.519063 14.7221"
   height="19.999834"
   width="120.25231"
   y="0px"
   x="0px"
   id="Layer_1"
   version="1.1"
   sodipodi:docname="martian_rust.svg"
   inkscape:version="0.92.2 5c3e80d, 2017-08-06"><metadata
     id="metadata883"><rdf:RDF><cc:Work
         rdf:about=""><dc:format>image/svg+xml</dc:format><dc:type
           rdf:resource="http://purl.org/dc/dcmitype/StillImage" /><dc:title></dc:title></cc:Work></rdf:RDF></metadata><defs
     id="defs881" /><sodipodi:namedview
     pagecolor="#ffffff"
     bordercolor="#666666"
     borderopacity="1"
     objecttolerance="10"
     gridtolerance="10"
     guidetolerance="10"
     inkscape:pageopacity="0"
     inkscape:pageshadow="2"
     inkscape:window-width="1446"
     inkscape:window-height="822"
     id="namedview879"
     showgrid="false"
     inkscape:zoom="4.1597222"
     inkscape:cx="34.445986"
     inkscape:cy="-12.565682"
     inkscape:window-x="0"
     inkscape:window-y="0"
     inkscape:window-maximized="0"
     inkscape:current-layer="Layer_1" /><g
     id="g894"
     transform="translate(-14.007589,-29.028162)"><path
       style="stroke-width:0.14065906"
       inkscape:connector-curvature="0"
       d="m 76.583192,55.208642 -0.618056,-0.38259 c -0.0052,-0.0602 -0.01111,-0.12026 -0.01758,-0.18004 l 0.531129,-0.4954 c 0.05401,-0.0504 0.07821,-0.12491 0.06358,-0.19707 -0.01421,-0.0724 -0.06499,-0.13208 -0.134048,-0.15782 l -0.678962,-0.25389 c -0.01702,-0.0588 -0.03488,-0.11717 -0.05317,-0.17526 l 0.423525,-0.58823 c 0.04318,-0.0598 0.05204,-0.13757 0.02391,-0.20579 -0.02813,-0.0679 -0.0896,-0.11661 -0.162321,-0.12856 l -0.715954,-0.11647 c -0.02785,-0.0543 -0.05683,-0.10774 -0.08608,-0.16077 l 0.30087,-0.66039 c 0.0308,-0.0672 0.02447,-0.14545 -0.0166,-0.20649 -0.04093,-0.0613 -0.110276,-0.0972 -0.184263,-0.0944 l -0.726645,0.0253 c -0.03756,-0.047 -0.07581,-0.0935 -0.114778,-0.13925 l 0.166963,-0.70779 c 0.01688,-0.0719 -0.0044,-0.14713 -0.05669,-0.19932 -0.0519,-0.052 -0.127296,-0.0736 -0.199173,-0.0567 l -0.707656,0.16682 c -0.04585,-0.0388 -0.09241,-0.0772 -0.139534,-0.11478 l 0.02546,-0.72665 c 0.0028,-0.0736 -0.03305,-0.14347 -0.09438,-0.18426 -0.06147,-0.0411 -0.139252,-0.0473 -0.206347,-0.0167 l -0.660253,0.30101 c -0.05331,-0.0293 -0.106761,-0.0582 -0.160774,-0.0862 l -0.116747,-0.7161 c -0.01182,-0.0726 -0.06048,-0.13418 -0.128562,-0.16232 -0.06794,-0.0283 -0.145864,-0.0191 -0.205644,0.0239 l -0.588658,0.42352 c -0.05795,-0.0184 -0.116184,-0.0362 -0.17498,-0.053 l -0.253889,-0.6791 c -0.02574,-0.0692 -0.08538,-0.11998 -0.15782,-0.13433 -0.0723,-0.0142 -0.146707,0.01 -0.196923,0.0636 l -0.495401,0.53155 c -0.05978,-0.007 -0.119982,-0.0127 -0.180043,-0.0176 l -0.382593,-0.6182 c -0.03868,-0.0626 -0.107182,-0.10071 -0.180888,-0.10071 -0.07371,0 -0.142206,0.0381 -0.180747,0.10071 l -0.382592,0.6182 c -0.0602,0.005 -0.120404,0.011 -0.180184,0.0176 l -0.495542,-0.53155 c -0.05022,-0.0537 -0.124765,-0.0778 -0.196923,-0.0636 -0.07244,0.0145 -0.132079,0.0651 -0.15782,0.13433 l -0.253889,0.6791 c -0.0588,0.0169 -0.117029,0.0347 -0.175121,0.053 l -0.588517,-0.42352 c -0.05978,-0.0432 -0.137705,-0.0523 -0.205784,-0.0239 -0.06794,0.0281 -0.116747,0.0897 -0.128563,0.16232 l -0.116747,0.7161 c -0.05401,0.028 -0.107463,0.0568 -0.160773,0.0862 l -0.660254,-0.30101 c -0.06709,-0.0307 -0.145301,-0.0243 -0.206347,0.0167 -0.06133,0.0408 -0.09719,0.1107 -0.09438,0.18426 l 0.02532,0.72665 c -0.04698,0.0376 -0.09354,0.076 -0.139534,0.11478 l -0.707656,-0.16682 c -0.07188,-0.0167 -0.14727,0.005 -0.199314,0.0567 -0.05232,0.0522 -0.07356,0.12744 -0.05668,0.19932 l 0.166681,0.70779 c -0.03868,0.0459 -0.07694,0.0923 -0.114497,0.13925 l -0.726645,-0.0253 c -0.07328,-0.002 -0.143331,0.0331 -0.184263,0.0944 -0.04107,0.061 -0.04726,0.13925 -0.01674,0.20649 l 0.30101,0.66039 c -0.02926,0.053 -0.05823,0.10648 -0.08622,0.16077 l -0.715955,0.11647 c -0.07272,0.0118 -0.134048,0.0605 -0.16232,0.12856 -0.02813,0.0682 -0.01899,0.14601 0.02391,0.20579 l 0.423524,0.58823 c -0.01843,0.0581 -0.03629,0.11647 -0.05317,0.17526 l -0.679102,0.25389 c -0.06892,0.0257 -0.119701,0.0854 -0.134048,0.15782 -0.01435,0.0723 0.0097,0.14671 0.06358,0.19707 l 0.531269,0.4954 c -0.0066,0.0598 -0.01252,0.11998 -0.01758,0.18004 l -0.618056,0.38259 c -0.06259,0.0387 -0.100712,0.10704 -0.100712,0.18089 0,0.0738 0.03812,0.14221 0.100712,0.18075 l 0.618056,0.38259 c 0.0051,0.0602 0.01097,0.12026 0.01758,0.18004 l -0.531269,0.49555 c -0.05387,0.0502 -0.07793,0.12476 -0.06358,0.19692 0.01435,0.0724 0.06513,0.13194 0.134048,0.15782 l 0.679102,0.25389 c 0.01688,0.0588 0.03474,0.11717 0.05317,0.17526 l -0.423524,0.58838 c -0.04304,0.0599 -0.05218,0.1377 -0.02391,0.20564 0.02827,0.0682 0.08974,0.11689 0.162461,0.12856 l 0.715814,0.11647 c 0.02799,0.0543 0.05669,0.10774 0.08622,0.16105 l -0.30101,0.66011 c -0.03066,0.0671 -0.02433,0.14516 0.01674,0.20649 0.04107,0.0615 0.11098,0.0973 0.184263,0.0944 l 0.726364,-0.0255 c 0.03784,0.0473 0.07596,0.0935 0.114778,0.13954 l -0.166681,0.70794 c -0.01688,0.0717 0.0044,0.1467 0.05668,0.19889 0.0519,0.0525 0.127437,0.0734 0.199314,0.0565 l 0.707656,-0.16668 c 0.046,0.0391 0.09255,0.0771 0.139534,0.1145 l -0.02532,0.72678 c -0.0028,0.0736 0.03305,0.14334 0.09438,0.18441 0.06105,0.0409 0.139253,0.0471 0.206347,0.0165 l 0.660254,-0.30086 c 0.05317,0.0295 0.106619,0.0582 0.160773,0.0862 l 0.116747,0.71567 c 0.01182,0.0729 0.06048,0.13447 0.128563,0.16246 0.06794,0.0283 0.146004,0.0191 0.205784,-0.0238 l 0.588236,-0.4238 c 0.05809,0.0184 0.116466,0.0364 0.175261,0.0533 l 0.25389,0.67882 c 0.02574,0.0689 0.08538,0.11998 0.157819,0.13404 0.0723,0.0146 0.146708,-0.01 0.196923,-0.0636 l 0.495542,-0.53127 c 0.05978,0.007 0.119982,0.0127 0.180184,0.018 l 0.382593,0.61806 c 0.03854,0.0623 0.107041,0.10071 0.180747,0.10071 0.07371,0 0.142206,-0.0383 0.180887,-0.10071 l 0.382593,-0.61806 c 0.0602,-0.005 0.120263,-0.0111 0.180044,-0.018 l 0.495401,0.53127 c 0.05021,0.054 0.124764,0.0782 0.196922,0.0636 0.07244,-0.0142 0.132079,-0.0651 0.15782,-0.13404 l 0.25389,-0.67882 c 0.05879,-0.0169 0.117169,-0.0349 0.175261,-0.0533 l 0.588377,0.4238 c 0.05978,0.0429 0.137705,0.052 0.205643,0.0238 0.06808,-0.028 0.116747,-0.0897 0.128563,-0.16246 l 0.116747,-0.71567 c 0.05401,-0.028 0.107463,-0.0571 0.160773,-0.0862 l 0.660254,0.30086 c 0.06709,0.0307 0.14516,0.0245 0.206347,-0.0165 0.06133,-0.0411 0.09705,-0.1107 0.09438,-0.18441 l -0.02532,-0.72678 c 0.04698,-0.0376 0.09354,-0.0754 0.139393,-0.1145 l 0.707656,0.16668 c 0.07188,0.0169 0.14727,-0.004 0.199173,-0.0565 0.05233,-0.0522 0.07357,-0.12716 0.05669,-0.19889 l -0.166681,-0.70794 c 0.03882,-0.046 0.07708,-0.0923 0.114496,-0.13954 l 0.726645,0.0255 c 0.07328,0.003 0.143332,-0.0329 0.184264,-0.0944 0.04107,-0.0613 0.0474,-0.13939 0.0166,-0.20649 l -0.300869,-0.66011 c 0.0294,-0.0533 0.05823,-0.10676 0.08608,-0.16105 l 0.715955,-0.11647 c 0.07286,-0.0117 0.134188,-0.0603 0.16232,-0.12856 0.02813,-0.0679 0.01927,-0.14572 -0.02391,-0.20564 l -0.423524,-0.58838 c 0.01828,-0.0581 0.03615,-0.11647 0.05317,-0.17526 l 0.678961,-0.25389 c 0.06906,-0.0259 0.119982,-0.0854 0.134048,-0.15782 0.01463,-0.0723 -0.0096,-0.14671 -0.06358,-0.19692 l -0.531128,-0.49555 c 0.0065,-0.0598 0.01238,-0.11998 0.01758,-0.18004 l 0.618056,-0.38259 c 0.06259,-0.0385 0.100712,-0.10704 0.100712,-0.18075 0,-0.0737 -0.03798,-0.14221 -0.100571,-0.18089 z m -4.136643,5.12717 c -0.236026,-0.0509 -0.386109,-0.28357 -0.335472,-0.5203 0.0505,-0.23645 0.283006,-0.38695 0.518891,-0.33604 0.236026,0.0505 0.386391,0.28357 0.335754,0.51988 -0.05064,0.23631 -0.283288,0.38695 -0.519173,0.33646 z m -0.210004,-1.42038 c -0.215349,-0.0461 -0.427182,0.0909 -0.473318,0.30664 l -0.219428,1.024 c -0.677133,0.30734 -1.429096,0.4781 -2.221007,0.4781 -0.810055,0 -1.578335,-0.1792 -2.267564,-0.49962 l -0.219288,-1.024 c -0.04614,-0.21549 -0.257969,-0.35278 -0.473177,-0.3065 l -0.904016,0.19411 c -0.167806,-0.17273 -0.323938,-0.35671 -0.46741,-0.55096 h 4.39869 c 0.04979,0 0.08299,-0.009 0.08299,-0.0543 v -1.55597 c 0,-0.0453 -0.0332,-0.0543 -0.08299,-0.0543 H 68.10356 v -0.9863 h 1.391399 c 0.127015,0 0.679102,0.0363 0.855629,0.74197 0.05528,0.21704 0.176668,0.92301 0.259657,1.14905 0.08271,0.25347 0.419445,0.75984 0.778266,0.75984 h 2.191891 c 0.0249,0 0.05148,-0.003 0.07947,-0.008 -0.152052,0.20663 -0.318874,0.40215 -0.498496,0.58486 z m -6.083786,1.399 c -0.236026,0.0509 -0.468395,-0.0996 -0.519173,-0.33604 -0.0505,-0.23687 0.09959,-0.46938 0.335613,-0.5203 0.236026,-0.0505 0.468535,0.10001 0.519172,0.33646 0.0505,0.23631 -0.09973,0.46924 -0.335612,0.51988 z m -1.668639,-6.76641 c 0.0979,0.22098 -0.0017,0.47993 -0.222382,0.57769 -0.220694,0.098 -0.478944,-0.002 -0.576842,-0.22281 -0.0979,-0.22111 0.0017,-0.47964 0.222382,-0.57768 0.220834,-0.0979 0.478944,0.002 0.576842,0.2228 z m -0.512843,1.21572 0.941713,-0.41846 c 0.201142,-0.0893 0.292008,-0.32507 0.20269,-0.52663 l -0.193969,-0.43858 h 0.762794 v 3.43827 h -1.538951 c -0.133485,-0.46923 -0.205081,-0.96449 -0.205081,-1.47635 0,-0.19538 0.01055,-0.3885 0.0308,-0.57825 z m 4.132564,-0.33393 v -1.01345 h 1.816471 c 0.09382,0 0.662504,0.10845 0.662504,0.53367 0,0.35305 -0.436183,0.47964 -0.794864,0.47964 h -1.684111 z m 6.601411,0.91218 c 0,0.13447 -0.0049,0.26753 -0.01477,0.39961 h -0.552227 c -0.05528,0 -0.0775,0.0363 -0.0775,0.0904 v 0.25361 c 0,0.59696 -0.336598,0.72679 -0.63156,0.75984 -0.280896,0.0316 -0.592315,-0.11759 -0.630715,-0.28947 -0.165696,-0.93201 -0.44181,-1.13104 -0.877853,-1.47496 0.541115,-0.34363 1.104173,-0.85056 1.104173,-1.5291 0,-0.73269 -0.502293,-1.1942 -0.844657,-1.42052 -0.480351,-0.31662 -1.012183,-0.38006 -1.155655,-0.38006 h -5.71118 c 0.774468,-0.86435 1.824066,-1.47664 3.011229,-1.69944 l 0.673194,0.70625 c 0.152193,0.15937 0.404254,0.16527 0.563481,0.0129 l 0.753229,-0.72046 c 1.578335,0.29384 2.914596,1.27634 3.684705,2.62428 l -0.515656,1.16466 c -0.08904,0.20156 0.0018,0.43731 0.20283,0.52663 l 0.992772,0.44096 c 0.01716,0.17625 0.02616,0.35432 0.02616,0.53479 z m -5.707241,-5.8908 c 0.174417,-0.16711 0.451093,-0.1605 0.618056,0.0142 0.166681,0.17512 0.160351,0.45208 -0.01449,0.61904 -0.174418,0.16711 -0.451094,0.16064 -0.618056,-0.0143 -0.166541,-0.17484 -0.160211,-0.4518 0.01449,-0.6189 z m 5.117177,4.11807 c 0.09776,-0.22097 0.356008,-0.3207 0.576702,-0.22266 0.220694,0.0979 0.320281,0.35671 0.222382,0.57768 -0.09776,0.22112 -0.356008,0.32085 -0.576843,0.22281 -0.220413,-0.0979 -0.319999,-0.35657 -0.222241,-0.57783 z"
       id="path3" /><text
       id="text887"
       y="62.382267"
       x="31.43701"
       style="font-style:normal;font-variant:normal;font-weight:normal;font-stretch:normal;font-size:20.35789299px;line-height:1.25;font-family:'.Al Bayan PUA';-inkscape-font-specification:'.Al Bayan PUA';letter-spacing:0px;word-spacing:0px;fill:#993f3f;fill-opacity:1;stroke:none;stroke-width:0.50894731"
       xml:space="preserve"><tspan
         style="font-style:normal;font-variant:normal;font-weight:300;font-stretch:normal;font-family:'Gill Sans';-inkscape-font-specification:'Gill Sans Light';fill:#993f3f;fill-opacity:1;stroke-width:0.50894731"
         y="62.382267"
         x="31.43701"
         id="tspan885"
         sodipodi:role="line">MA   TIAN</tspan></text>
</g></svg>