<?xml version="1.0" encoding="UTF-8" standalone="no"?>
<svg
   xmlns:dc="http://purl.org/dc/elements/1.1/"
   xmlns:cc="http://creativecommons.org/ns#"
   xmlns:rdf="http://www.w3.org/1999/02/22-rdf-syntax-ns#"
   xmlns:svg="http://www.w3.org/2000/svg"
   xmlns="http://www.w3.org/2000/svg"
   xmlns:sodipodi="http://sodipodi.sourceforge.net/DTD/sodipodi-0.dtd"
   xmlns:inkscape="http://www.inkscape.org/namespaces/inkscape"
   xml:space="preserve"
   viewBox="19 19 190.15526 51.527777"
   height="70"
   width="258.32413"
   y="0px"
   x="0px"
   id="Layer_1"
   version="1.1"
   sodipodi:docname="martian_rust.svg"
   inkscape:version="0.92.2 5c3e80d, 2017-08-06"><metadata
     id="metadata883"><rdf:RDF><cc:Work
         rdf:about=""><dc:format>image/svg+xml</dc:format><dc:type
           rdf:resource="http://purl.org/dc/dcmitype/StillImage" /><dc:title /></cc:Work></rdf:RDF></metadata><defs
     id="defs881" /><sodipodi:namedview
     pagecolor="#ffffff"
     bordercolor="#666666"
     borderopacity="1"
     objecttolerance="10"
     gridtolerance="10"
     guidetolerance="10"
     inkscape:pageopacity="0"
     inkscape:pageshadow="2"
     inkscape:window-width="1440"
     inkscape:window-height="822"
     id="namedview879"
     showgrid="false"
     inkscape:zoom="4.1597222"
     inkscape:cx="126.12482"
     inkscape:cy="43.514449"
     inkscape:window-x="0"
     inkscape:window-y="0"
     inkscape:window-maximized="0"
     inkscape:current-layer="g817" /><g
     id="g817"
     transform="matrix(2.0000004,0,0,2.0000004,-19.000008,-19.000008)"><path
       style="stroke-width:0.24615537"
       inkscape:connector-curvature="0"
       d="m 71.333494,31.565942 -1.081607,-0.669538 c -0.0091,-0.10535 -0.01944,-0.210457 -0.03076,-0.315072 l 0.929483,-0.866957 c 0.09453,-0.08821 0.136874,-0.218595 0.111277,-0.344876 -0.02487,-0.126697 -0.113739,-0.23114 -0.234585,-0.276186 l -1.188196,-0.444311 c -0.02978,-0.102901 -0.06104,-0.20505 -0.09305,-0.306709 l 0.741175,-1.02941 c 0.07557,-0.10465 0.09107,-0.24075 0.04184,-0.360134 -0.04922,-0.118832 -0.156802,-0.20407 -0.284063,-0.224983 l -1.252931,-0.203825 c -0.04873,-0.09502 -0.09946,-0.188547 -0.150641,-0.28135 L 69.367961,25.0869 c 0.0539,-0.1176 0.04283,-0.254539 -0.02904,-0.36136 -0.07163,-0.107275 -0.192986,-0.170102 -0.322462,-0.165203 l -1.27164,0.04428 c -0.06573,-0.08226 -0.132675,-0.163625 -0.200864,-0.243689 l 0.292182,-1.238636 c 0.02955,-0.12583 -0.0077,-0.257482 -0.0992,-0.348814 -0.09082,-0.09101 -0.222769,-0.128796 -0.348556,-0.09922 l -1.238406,0.291937 c -0.08025,-0.0679 -0.161719,-0.135095 -0.244187,-0.200866 l 0.04455,-1.271648 c 0.0049,-0.128799 -0.05783,-0.251075 -0.165166,-0.322458 -0.107579,-0.07192 -0.243694,-0.08277 -0.36111,-0.02923 l -1.155453,0.526771 c -0.09329,-0.05128 -0.186834,-0.10185 -0.281356,-0.150851 l -0.204308,-1.253184 c -0.02068,-0.127048 -0.10584,-0.234818 -0.224987,-0.284065 -0.118901,-0.04953 -0.255264,-0.03343 -0.359879,0.04183 L 62.167918,20.76366 C 62.0665,20.73146 61.964595,20.70031 61.861699,20.67091 l -0.444308,-1.188435 c -0.04505,-0.1211 -0.149415,-0.209965 -0.276188,-0.235079 -0.126529,-0.02484 -0.256738,0.0175 -0.344618,0.111299 l -0.866957,0.930222 c -0.104615,-0.01232 -0.209969,-0.02223 -0.315078,-0.03081 L 58.945009,19.176245 C 58.877319,19.066694 58.757439,19 58.628453,19 c -0.128993,0 -0.248863,0.06667 -0.31631,0.176245 l -0.669541,1.081857 c -0.10535,0.0088 -0.210709,0.01925 -0.315325,0.03081 L 56.46007,19.35869 c -0.08789,-0.09397 -0.21834,-0.136145 -0.344618,-0.1113 -0.126767,0.02538 -0.23114,0.113938 -0.276187,0.235079 l -0.444309,1.188436 c -0.1029,0.02958 -0.204801,0.06074 -0.306465,0.09275 L 54.05858,20.022489 c -0.104615,-0.0756 -0.240985,-0.09152 -0.360126,-0.04183 -0.118901,0.04918 -0.204309,0.156978 -0.224987,0.284064 l -0.204309,1.253184 c -0.09453,0.04899 -0.188062,0.0994 -0.281355,0.150851 l -1.155453,-0.52677 c -0.117404,-0.05371 -0.25428,-0.04253 -0.361111,0.02923 -0.10732,0.0714 -0.170084,0.193727 -0.165166,0.322458 l 0.04431,1.271648 c -0.08222,0.0658 -0.163696,0.132998 -0.244185,0.200867 l -1.23841,-0.291937 c -0.125787,-0.02923 -0.257723,0.0088 -0.3488,0.09922 -0.09157,0.09136 -0.128728,0.223021 -0.09919,0.348814 l 0.291694,1.238642 c -0.06769,0.08032 -0.134648,0.161527 -0.200372,0.243691 l -1.27164,-0.04428 c -0.128236,-0.0035 -0.25083,0.05794 -0.322461,0.165203 -0.07188,0.10675 -0.0827,0.243687 -0.0293,0.36136 l 0.526772,1.155689 c -0.05119,0.09276 -0.101897,0.186345 -0.150885,0.281352 l -1.252932,0.203825 c -0.127258,0.02065 -0.234586,0.105874 -0.284063,0.224982 -0.04922,0.11935 -0.03322,0.255518 0.04185,0.360133 l 0.741174,1.029412 c -0.03224,0.101676 -0.0635,0.203825 -0.09305,0.306709 l -1.18844,0.44431 c -0.120608,0.04498 -0.209477,0.149451 -0.234585,0.276187 -0.0251,0.12653 0.01698,0.256745 0.111265,0.344876 l 0.92973,0.866957 c -0.01167,0.10465 -0.02191,0.209968 -0.03076,0.315072 l -1.081616,0.669535 c -0.109539,0.06772 -0.176248,0.187322 -0.176248,0.31656 0,0.129147 0.06671,0.248871 0.176248,0.316315 l 1.081606,0.669538 c 0.0089,0.10535 0.0192,0.210457 0.03076,0.315074 l -0.92973,0.867219 c -0.09427,0.08786 -0.136383,0.218332 -0.111265,0.344612 0.02511,0.126697 0.113972,0.230897 0.234585,0.276187 l 1.18844,0.444313 c 0.02953,0.1029 0.06081,0.205047 0.09305,0.306706 l -0.741174,1.029672 c -0.07532,0.104825 -0.09132,0.240978 -0.04185,0.359874 0.04948,0.119349 0.157047,0.20456 0.284309,0.224983 l 1.252686,0.203824 c 0.04899,0.09502 0.09921,0.188546 0.150885,0.281839 l -0.526772,1.155203 c -0.05365,0.117432 -0.04259,0.254033 0.0293,0.361359 0.07186,0.107614 0.194216,0.170278 0.322461,0.165203 l 1.271149,-0.04463 c 0.06622,0.08277 0.132927,0.163627 0.200863,0.244197 l -0.291694,1.238906 c -0.02953,0.12548 0.0077,0.256726 0.09919,0.348059 0.09082,0.09187 0.223015,0.128447 0.3488,0.09888 l 1.23841,-0.291692 c 0.0805,0.06843 0.161963,0.134927 0.244185,0.200377 l -0.04431,1.271876 c -0.0049,0.128796 0.05783,0.250846 0.165166,0.322719 0.106832,0.07157 0.243695,0.08242 0.361111,0.02888 l 1.155453,-0.52651 c 0.09305,0.05163 0.186586,0.101849 0.281355,0.15085 l 0.204309,1.252434 c 0.02068,0.12758 0.10584,0.235324 0.224987,0.284307 0.118902,0.04953 0.25551,0.03343 0.360126,-0.04165 l 1.029406,-0.741659 c 0.101664,0.03221 0.203818,0.0637 0.30671,0.09327 l 0.444312,1.187944 c 0.04505,0.120582 0.149416,0.209969 0.276184,0.234572 0.12653,0.02555 0.256741,-0.0175 0.344619,-0.1113 l 0.867205,-0.929728 c 0.104614,0.01232 0.20997,0.02223 0.315325,0.0315 l 0.669543,1.081614 c 0.06745,0.109026 0.187323,0.176244 0.31631,0.176244 0.128993,0 0.248861,-0.06702 0.316554,-0.176244 l 0.669544,-1.081614 c 0.10535,-0.0088 0.210462,-0.01943 0.315078,-0.0315 l 0.866959,0.929728 c 0.08788,0.0945 0.21834,0.136845 0.344618,0.1113 0.126767,-0.02484 0.23114,-0.113937 0.276186,-0.234572 l 0.444311,-1.187944 c 0.102888,-0.02958 0.205048,-0.06109 0.306709,-0.09327 l 1.02967,0.741656 c 0.104615,0.07507 0.240985,0.091 0.359877,0.04165 0.11914,-0.04899 0.20431,-0.156976 0.224987,-0.284307 l 0.204309,-1.252432 c 0.09452,-0.04901 0.188062,-0.09993 0.281356,-0.150852 l 1.155453,0.52651 c 0.117403,0.05371 0.254034,0.04288 0.36111,-0.02888 0.107321,-0.07192 0.169838,-0.193727 0.165166,-0.32272 l -0.04431,-1.271876 c 0.08222,-0.0658 0.163696,-0.131946 0.243938,-0.200376 l 1.238408,0.291691 c 0.125788,0.02958 0.257726,-0.007 0.348555,-0.09887 0.09158,-0.09136 0.128756,-0.222534 0.09921,-0.34806 l -0.291686,-1.238915 c 0.06794,-0.0805 0.134886,-0.161528 0.200371,-0.244198 l 1.271639,0.04463 c 0.128236,0.0053 0.250832,-0.05759 0.322464,-0.165202 0.07188,-0.107276 0.08294,-0.243933 0.02906,-0.361359 l -0.526538,-1.1552 c 0.05144,-0.09327 0.101908,-0.186832 0.150642,-0.281839 l 1.252931,-0.203825 c 0.127509,-0.02048 0.234829,-0.105525 0.284064,-0.224981 0.04922,-0.118832 0.03372,-0.255012 -0.04184,-0.359873 l -0.741174,-1.029674 c 0.032,-0.101674 0.06327,-0.203825 0.09305,-0.306707 l 1.18819,-0.444311 c 0.120861,-0.04533 0.209971,-0.149451 0.234588,-0.276187 0.02559,-0.12653 -0.0168,-0.256746 -0.111265,-0.344613 l -0.929469,-0.867224 c 0.01132,-0.10465 0.02166,-0.209967 0.03076,-0.315072 l 1.081606,-0.669538 c 0.109538,-0.06737 0.176247,-0.187321 0.176247,-0.316316 0,-0.128978 -0.06647,-0.248868 -0.176001,-0.31656 z m -7.239186,8.972621 c -0.413047,-0.08907 -0.675698,-0.496251 -0.58708,-0.910532 0.08837,-0.41379 0.495265,-0.677169 0.908065,-0.588076 0.41305,0.08837 0.676193,0.496253 0.587575,0.909799 -0.08862,0.413545 -0.495757,0.677167 -0.90856,0.588809 z m -0.36751,-2.485686 c -0.376863,-0.08067 -0.747576,0.159077 -0.828312,0.536626 l -0.384002,1.792014 c -1.184993,0.53785 -2.500939,0.836682 -3.886795,0.836682 -1.417607,0 -2.762108,-0.313604 -3.968268,-0.874342 l -0.383757,-1.792015 c -0.08074,-0.37711 -0.451451,-0.617371 -0.828067,-0.536378 l -1.582041,0.339694 C 51.571892,38.052877 51.298659,37.730909 51.047581,37.39097 h 7.697771 c 0.08713,0 0.145234,-0.01575 0.145234,-0.09502 v -2.722977 c 0,-0.07927 -0.0581,-0.09502 -0.145234,-0.09502 h -2.251336 v -1.726039 h 2.434969 c 0.222279,0 1.188437,0.06352 1.497361,1.298459 0.09673,0.379822 0.309173,1.61528 0.454404,2.010854 0.144744,0.443574 0.734036,1.329731 1.361977,1.329731 h 3.83584 c 0.04358,0 0.09009,-0.0053 0.139071,-0.014 -0.266095,0.361605 -0.558034,0.703769 -0.872377,1.023514 z m -10.646712,2.448271 c -0.413047,0.08907 -0.819697,-0.174301 -0.90856,-0.588075 -0.08837,-0.414526 0.174284,-0.821421 0.587327,-0.910532 0.413049,-0.08837 0.819945,0.175019 0.90856,0.58881 0.08837,0.413546 -0.174529,0.821176 -0.587327,0.909797 z M 50.159945,28.659835 c 0.171326,0.386718 -0.0029,0.839884 -0.389172,1.010964 -0.386218,0.171501 -0.838159,-0.0035 -1.009482,-0.389919 -0.171327,-0.386947 0.0029,-0.839376 0.389171,-1.010949 0.386464,-0.171327 0.83816,0.0035 1.009483,0.389904 z m -0.897483,2.127526 1.648011,-0.73231 c 0.352001,-0.156277 0.511018,-0.568878 0.354712,-0.92161 L 50.925734,28.36592 h 1.334902 v 6.01702 h -2.693187 c -0.233599,-0.821158 -0.358894,-1.687872 -0.358894,-2.583634 0,-0.341917 0.01845,-0.67988 0.0539,-1.011945 z m 7.232045,-0.584382 v -1.773552 h 3.178851 c 0.164186,0 1.159391,0.18979 1.159391,0.933929 0,0.617844 -0.763327,0.839377 -1.391022,0.839377 h -2.94722 z m 11.552565,1.596327 c 0,0.235326 -0.0086,0.468183 -0.02585,0.699324 h -0.966406 c -0.09675,0 -0.135627,0.06354 -0.135627,0.158201 v 0.443822 c 0,1.044687 -0.58905,1.271892 -1.105237,1.329731 -0.491575,0.0553 -1.03656,-0.205785 -1.103762,-0.506577 -0.28997,-1.631031 -0.773173,-1.979335 -1.536256,-2.581201 0.94696,-0.601357 1.932321,-1.488492 1.932321,-2.675948 0,-1.282215 -0.879022,-2.089867 -1.478163,-2.485929 -0.840621,-0.554091 -1.771335,-0.665109 -2.022414,-0.665109 h -9.994647 c 1.35533,-1.512626 3.192142,-2.584143 5.269694,-2.974046 l 1.178099,1.235947 c 0.26634,0.278901 0.70745,0.289227 0.986099,0.02258 l 1.318162,-1.260817 c 2.762109,0.514226 5.100586,2.233617 6.448288,4.59253 l -0.902406,2.038171 c -0.155822,0.352733 0.0033,0.765299 0.354955,0.921609 l 1.737365,0.771687 c 0.03002,0.308439 0.04578,0.620066 0.04578,0.935889 z M 58.059317,21.490322 c 0.305234,-0.292444 0.789421,-0.280877 1.081608,0.02485 0.291694,0.306463 0.280617,0.791147 -0.02537,1.083331 -0.305234,0.292444 -0.789421,0.281122 -1.081607,-0.02503 -0.291451,-0.305969 -0.280371,-0.790656 0.02537,-1.083084 z m 8.955135,7.206683 c 0.171079,-0.386701 0.623017,-0.56123 1.009236,-0.389659 0.386216,0.171327 0.560496,0.624248 0.389171,1.010948 -0.171081,0.386963 -0.623019,0.561493 -1.009483,0.389922 -0.385726,-0.171329 -0.560003,-0.624005 -0.388924,-1.011211 z"
       id="path3" /><text
       id="text887"
       y="38.507008"
       x="17.42942"
       style="font-style:normal;font-variant:normal;font-weight:normal;font-stretch:normal;font-size:20.35789299px;line-height:1.25;font-family:'.Al Bayan PUA';-inkscape-font-specification:'.Al Bayan PUA';letter-spacing:0px;word-spacing:0px;fill:#993f3f;fill-opacity:1;stroke:none;stroke-width:0.50894731"
       xml:space="preserve"><tspan
         style="font-style:normal;font-variant:normal;font-weight:300;font-stretch:normal;font-family:'Gill Sans';-inkscape-font-specification:'Gill Sans Light';fill:#993f3f;fill-opacity:1;stroke-width:0.50894731"
         y="38.507008"
         x="17.42942"
         id="tspan885"
         sodipodi:role="line">MA</tspan></text>
<text
       xml:space="preserve"
       style="font-style:normal;font-variant:normal;font-weight:normal;font-stretch:normal;font-size:20.35789299px;line-height:1.25;font-family:'.Al Bayan PUA';-inkscape-font-specification:'.Al Bayan PUA';letter-spacing:0px;word-spacing:0px;fill:#993f3f;fill-opacity:1;stroke:none;stroke-width:0.50894731"
       x="70.42942"
       y="38.507008"
       id="text817"><tspan
         sodipodi:role="line"
         id="tspan815"
         x="70.42942"
         y="38.507008"
         style="font-style:normal;font-variant:normal;font-weight:300;font-stretch:normal;font-family:'Gill Sans';-inkscape-font-specification:'Gill Sans Light';fill:#993f3f;fill-opacity:1;stroke-width:0.50894731">TIAN</tspan></text>
</g></svg>